<svg width="886" height="610" viewBox="0 0 886 610" fill="none" xmlns="http://www.w3.org/2000/svg">
<g opacity="0.2">
<g opacity="0.6">
<path opacity="0.6" d="M287.715 19.8025L313.824 15.0104L353.665 17.1129L312.629 24.6343L287.715 19.8025Z" fill="#0068B3"/>
<path opacity="0.2" d="M287.802 19.8264L313.911 15.0342L353.752 17.1367L312.716 24.6581L287.802 19.8264Z" fill="black"/>
<path opacity="0.6" d="M223.79 31.7907L261.107 24.9358L281.448 28.522L433.141 0.697538C433.141 0.697538 456.153 -1.95241 457.007 3.07773L261.107 38.8044L223.79 31.7907Z" fill="#0068B3"/>
<path opacity="0.6" d="M438.896 12.4557L276.008 42.335L261.105 38.8044L457.567 2.76831C457.567 2.76831 462.518 8.12374 438.896 12.4557Z" fill="#0068B3"/>
<path opacity="0.2" d="M438.763 12.8206L275.875 42.6999L260.973 39.1693L457.434 3.13324C457.434 3.13324 462.385 8.48866 438.763 12.8206Z" fill="black"/>
<path opacity="0.6" d="M300.727 49.8167L326.836 45.0325L407.152 10.4325L349.945 20.9292L300.727 49.8167Z" fill="#0068B3"/>
</g>
<path opacity="0.6" d="M817.834 355.695C812.237 354.402 806.298 353.22 800.456 353.878C790.7 354.989 783.822 361.019 780.944 367.199C778.066 373.38 778.127 379.973 776.274 386.32C774.42 392.667 769.981 399.244 761.225 402.291C752.469 405.338 742.128 404.132 732.408 403.402C719.664 402.445 706.8 402.368 694.031 403.172C683.311 403.846 670.738 406.203 667.592 412.899C665.019 418.373 670.129 423.943 673.543 429.219C679.921 439.081 680.433 450.752 673.129 460.344C665.702 470.103 651.056 477.085 644.885 487.2C643.324 489.771 642.336 492.619 643.397 495.293C644.312 497.211 645.819 498.987 647.824 500.514C652.702 504.576 658.458 508.154 662.873 512.415C672.08 521.301 674.58 532.376 675.653 543.071C676.707 553.585 676.617 564.135 675.385 574.641C687.385 572.07 700.653 574.363 713.018 572.705C739.347 569.174 755.786 548.903 782.603 547.665C795.286 547.086 808.932 550.966 820.249 547.189C825.761 545.348 829.676 541.913 832.298 538.255C837.003 531.626 838.033 524.14 835.212 517.072C833.224 512.161 829.358 507.361 830.115 502.307C830.761 497.983 834.737 494.166 839.322 491.009C852.358 482.004 871.285 476.497 880.651 465.731C889.431 455.639 887.211 441.985 875.395 433.313C872.297 431.036 868.614 429.084 865.907 426.609C861.407 422.491 859.968 417.286 859.431 412.24C858.151 400.141 861.309 387.343 855.297 375.593C849.846 364.906 833.2 359.257 817.834 355.695Z" fill="#0068B3"/>
<path opacity="0.6" d="M817.515 356.052C817.515 356.052 764.137 548.935 694.809 571.935" stroke="#535461" stroke-miterlimit="10"/>
<path opacity="0.6" d="M668.992 409.44C668.992 409.44 726.162 414.549 783.284 452.751" stroke="#535461" stroke-miterlimit="10"/>
<path opacity="0.6" d="M773.21 475.149C773.21 475.149 817.222 447.15 885.953 451.91" stroke="#535461" stroke-miterlimit="10"/>
<path opacity="0.6" d="M643.883 487.319C643.883 487.319 724.175 491.754 753.906 511.819" stroke="#535461" stroke-miterlimit="10"/>
<path opacity="0.6" d="M741.835 530.496C741.835 530.496 786.822 525.371 828.297 542.635" stroke="#535461" stroke-miterlimit="10"/>
<path opacity="0.6" d="M214.778 454.195C218.266 453.402 221.974 452.648 225.62 453.06C231.717 453.751 235.998 457.511 237.815 461.375C239.632 465.239 239.571 469.309 240.729 473.276C241.888 477.243 244.656 481.345 250.12 483.241C255.583 485.137 262.034 484.392 268.095 483.931C276.044 483.335 284.069 483.287 292.034 483.789C298.717 484.209 306.57 485.677 308.533 489.858C310.143 493.27 306.948 496.753 304.875 500.045C300.899 506.202 300.582 513.478 305.131 519.46C309.68 525.442 318.899 529.901 322.753 536.216C323.869 537.796 324.194 539.564 323.68 541.27C323.11 542.465 322.172 543.572 320.924 544.523C317.899 547.054 314.29 549.284 311.533 551.949C305.79 557.503 304.216 564.406 303.558 571.078C302.901 577.639 302.958 584.222 303.729 590.778C296.241 589.191 287.973 590.604 280.253 589.564C263.729 587.414 253.485 574.791 236.754 573.998C228.839 573.633 220.327 576.061 213.266 573.704C209.893 572.44 207.253 570.488 205.754 568.15C202.821 564.016 202.179 559.348 203.937 554.94C205.157 551.878 207.596 548.879 207.12 545.729C206.718 543.032 204.23 540.651 201.376 538.676C193.242 533.059 181.437 529.623 175.596 522.903C172.939 519.711 171.831 516.07 172.416 512.46C173.002 508.85 175.254 505.44 178.876 502.679C180.961 501.355 182.936 499.96 184.791 498.498C187.596 495.928 188.449 492.683 188.828 489.533C189.632 481.988 187.608 473.998 191.401 466.667C194.803 459.971 205.193 456.448 214.778 454.195Z" fill="#0068B3"/>
<path opacity="0.6" d="M214.973 454.449C214.973 454.449 248.277 574.791 291.508 589.136" stroke="#535461" stroke-miterlimit="10"/>
<path opacity="0.6" d="M307.632 487.756C307.632 487.756 271.962 490.929 236.328 514.771" stroke="#535461" stroke-miterlimit="10"/>
<path opacity="0.6" d="M242.595 528.774C242.595 528.774 215.144 511.32 172.254 514.279" stroke="#535461" stroke-miterlimit="10"/>
<path opacity="0.6" d="M323.302 536.343C323.302 536.343 273.217 539.088 254.656 551.624" stroke="#535461" stroke-miterlimit="10"/>
<path opacity="0.6" d="M262.242 563.279C262.242 563.279 234.194 560.105 208.304 570.856" stroke="#535461" stroke-miterlimit="10"/>
<path d="M548.019 354.711H548.165L540.604 328.473C540.601 326.542 539.993 324.631 538.817 322.858C537.641 321.085 535.921 319.486 533.763 318.159L498.8 307.052L498.593 307.361C495.99 305.317 493.887 303.024 492.361 300.562L492.971 299.998C494.898 298.435 496.273 296.615 496.995 294.667C497.129 294.169 497.198 293.665 497.203 293.159L497.727 292.985C501.015 293.265 504.344 292.713 507.026 291.443C509.707 290.174 511.539 288.283 512.141 286.162C512.141 285.971 512.239 285.773 512.276 285.582C511.6 287.317 510.095 288.866 507.978 290.007C505.86 291.148 503.24 291.821 500.495 291.93C505.371 289.814 509.369 286.949 512.135 283.587C514.9 280.225 516.348 276.471 516.349 272.658C516.349 272.333 516.349 272.015 516.349 271.698C517.893 271.082 519.221 270.261 520.247 269.289C521.272 268.318 521.972 267.216 522.3 266.057C522.3 265.867 522.397 265.668 522.434 265.478C522 266.577 521.228 267.607 520.165 268.507C519.103 269.407 517.771 270.158 516.251 270.714C515.978 268.566 515.243 266.454 514.068 264.438C514.361 264.438 514.654 264.438 514.946 264.438C518.384 264.438 521.682 263.55 524.113 261.968C526.544 260.387 527.909 258.241 527.909 256.005C527.909 255.806 527.909 255.616 527.909 255.418C527.799 256.569 527.324 257.693 526.514 258.72C525.704 259.746 524.576 260.653 523.202 261.382C521.828 262.111 520.236 262.648 518.528 262.958C516.82 263.269 515.032 263.346 513.275 263.185L512.995 262.772C516.864 262.019 520.322 260.562 522.962 258.573C525.602 256.584 527.315 254.146 527.897 251.546C527.897 251.347 527.897 251.157 527.897 250.959C527.726 252.597 526.818 254.167 525.288 255.473C525.717 253.288 524.813 251.081 522.771 249.323C520.729 247.566 517.71 246.4 514.362 246.073C511.014 245.746 507.602 246.285 504.857 247.575C502.112 248.865 500.253 250.803 499.678 252.974C498.922 252.667 498.15 252.376 497.361 252.101C498.083 250.407 499.601 248.902 501.702 247.797C503.804 246.692 506.383 246.041 509.08 245.936H508.178C505.456 245.918 502.795 246.458 500.571 247.479C498.347 248.5 496.674 249.951 495.788 251.625C488.013 249.273 479.195 248.824 470.951 250.36C462.708 251.896 455.593 255.314 450.91 259.988C448.167 261.281 444.63 263.161 444.813 264.803C443.661 265.557 442.628 266.384 441.728 267.271C436.85 272.325 437.667 278.751 437.691 284.726C437.715 290.7 436.057 297.499 428.398 300.8C429.898 301.218 431.51 301.437 433.141 301.446C434.772 301.454 436.389 301.25 437.898 300.847C440.904 300.038 443.73 298.971 446.301 297.674C448.557 296.627 450.886 295.532 452.227 293.953C452.325 293.834 452.423 293.715 452.508 293.596C454.19 294.327 455.984 294.944 457.861 295.436C458.605 299.356 458.764 303.878 456.093 305.37L455.691 305.592L455.581 305.647C455.73 305.39 455.901 305.139 456.093 304.894C456.093 304.894 448.886 309.345 433.411 309.107C417.935 308.869 410.008 318.945 410.008 318.945L399.204 349.165H399.374L399.204 349.657H399.374L399.204 350.149L399.496 350.109C399.651 350.516 399.975 350.887 400.434 351.181C400.892 351.475 401.467 351.681 402.094 351.776C403.033 351.918 404.191 352.117 405.496 352.379C405.496 358.075 405.094 365.533 403.167 367.453C403.167 367.453 398.13 384.789 399.204 389.668C400.021 393.397 401.46 412.859 402.106 422.07C400.892 425.21 399.924 428.388 399.204 431.591L382.997 494.841C382.997 494.841 370.777 545.436 371.436 560.732L369.314 569.563C369.314 569.563 336.387 596.435 346.082 600.22C355.777 604.004 370.606 605.678 384.814 591.405C386.736 588.051 389.83 585.034 393.85 582.59C395.445 581.681 396.684 580.537 397.462 579.254C398.24 577.971 398.537 576.585 398.326 575.212L397.362 568.952L399.094 569.333L399.191 569.119L400.167 569.333C400.167 569.333 416.374 534.661 414.569 510.534C414.569 510.534 444.63 440.977 467.398 430.036V429.576C468.063 429.301 468.77 429.072 469.508 428.894L474.386 496.245L469.508 570.483L468.337 574.95C468.337 574.95 435.411 601.822 445.106 605.607C454.801 609.391 469.63 611.065 483.837 596.792C485.76 593.438 488.853 590.421 492.873 587.978C494.468 587.068 495.707 585.924 496.485 584.641C497.264 583.358 497.56 581.972 497.349 580.599L495.837 570.777C501.434 558.297 516.166 522.261 509.995 501.394L519.995 457.028C530.08 449.657 528.727 430.885 528.727 430.885C536.653 420.111 538.483 377.728 538.483 377.728L540.482 356.806C541.966 356.647 543.467 356.57 544.97 356.576C545.307 356.575 545.641 356.537 545.958 356.465L546.592 356.52L546.873 356.139C547.172 355.986 547.425 355.798 547.617 355.584L548.214 355.703L548.068 355.203H548.214L548.019 354.711ZM519.849 397.253C518.946 395.801 517.946 394.357 516.836 392.929L516.032 392.985C515.959 392.806 515.87 392.632 515.763 392.461C515.665 392.302 515.591 392.137 515.544 391.969C515.602 391.789 515.688 391.614 515.8 391.445C516.276 390.744 516.684 390.023 517.019 389.287C518.318 387.938 518.983 386.372 518.934 384.781C520.129 387.843 520.288 392.31 519.836 397.253H519.849ZM516.836 379.338L514.776 365.335C514.979 364.954 515.19 364.586 515.41 364.232L518.117 381.996L516.836 379.338ZM421.411 381.203C419.935 382.067 419.545 383.583 419.606 385.011C419.606 385.17 419.606 385.32 419.606 385.479C419.616 386.901 419.92 388.315 420.508 389.684L417.35 398.411L417.813 381.655C419.866 379.881 421.67 377.99 423.203 376.006C423.008 378.64 422.46 380.6 421.411 381.203Z" fill="url(#paint0_linear)"/>
<path d="M441.788 273.086C437.08 277.958 437.873 284.146 437.897 289.906C437.922 295.667 436.324 302.212 428.946 305.394C430.39 305.795 431.943 306.005 433.513 306.012C435.084 306.019 436.64 305.822 438.093 305.433C440.987 304.647 443.706 303.611 446.178 302.355C448.466 301.45 450.416 300.225 451.885 298.769C453.69 296.642 453.287 294.048 453.202 291.628C453.219 287.346 453.794 283.073 454.922 278.854C455.507 276.26 459.373 269.127 454.617 267.747C450.324 266.517 443.702 271.095 441.788 273.086Z" fill="#000411"/>
<path d="M375.24 551.402L372.13 564.35C372.13 564.35 340.423 590.239 349.74 593.88C359.057 597.522 373.374 599.14 387.045 585.383C388.897 582.15 391.877 579.241 395.752 576.886V576.886C397.297 576.007 398.495 574.9 399.246 573.657C399.998 572.415 400.28 571.073 400.069 569.745L396.996 549.752L375.24 551.402Z" fill="#333333"/>
<path d="M470.641 556.591L467.532 569.539C467.532 569.539 435.813 595.419 445.166 599.069C454.52 602.719 468.8 604.329 482.471 590.572C484.323 587.339 487.303 584.43 491.178 582.075C492.723 581.196 493.921 580.089 494.672 578.846C495.423 577.604 495.706 576.262 495.495 574.934L492.397 554.956L470.641 556.591Z" fill="#333333"/>
<path d="M421.275 400.038C421.275 400.038 406.361 407.036 400.812 431.409L385.203 492.342C385.203 492.342 371.995 547.641 374.434 558.249L400.8 564.12C400.8 564.12 416.409 530.718 414.678 507.472C414.678 507.472 446.385 434.011 468.616 428.822L473.299 493.706L468.421 566.826L490.97 569.761C490.97 569.761 513.86 523.268 506.579 498.673L518.372 446.309C518.372 446.309 531.896 418.326 513.164 394.175L421.275 400.038Z" fill="#4D8AF0"/>
<g opacity="0.1">
<path opacity="0.1" d="M466.629 429.917L466.543 428.814C444.336 434.003 412.605 507.464 412.605 507.464C414.202 528.838 401.129 558.788 399.02 563.477L401.849 564.112C401.849 564.112 417.458 530.71 415.727 507.464C415.727 507.472 444.69 440.453 466.629 429.917Z" fill="black"/>
<path opacity="0.1" d="M514.249 394.174L511.274 394.365C529.786 418.468 516.334 446.309 516.334 446.309L504.542 498.673C511.444 521.967 491.274 564.905 489.115 569.38L492.054 569.761C492.054 569.761 514.944 523.268 507.664 498.673L519.456 446.309C519.456 446.309 532.968 418.325 514.249 394.174Z" fill="black"/>
</g>
<path d="M400.984 352.307C400.987 352.801 401.246 353.28 401.72 353.666C402.194 354.052 402.854 354.322 403.594 354.433C410.847 355.556 417.646 357.677 423.533 360.654C434.63 366.295 411.74 349.371 411.74 349.371L404.106 350.498L400.984 352.307V352.307Z" fill="#444444"/>
<path opacity="0.1" d="M401.13 352.021C401.132 352.515 401.392 352.994 401.865 353.38C402.339 353.766 403 354.037 403.74 354.148C410.993 355.27 417.792 357.391 423.678 360.368C434.776 366.009 411.886 349.086 411.886 349.086L404.252 350.212L401.13 352.021Z" fill="black"/>
<path d="M509.909 367.207C509.909 367.207 527.897 359.011 541.299 359.13C541.685 359.133 542.068 359.087 542.426 358.993C542.784 358.899 543.109 358.76 543.384 358.583C543.658 358.407 543.876 358.197 544.025 357.965C544.174 357.734 544.25 357.485 544.25 357.234V357.234C544.25 357.234 517.897 350.506 509.909 367.207Z" fill="#444444"/>
<path opacity="0.1" d="M544.005 358.363C544.005 358.363 517.64 351.627 509.664 368.328C509.664 368.328 529.091 358.625 542.591 360.203" fill="black"/>
<path d="M479.384 300.617C498.35 300.617 513.725 290.614 513.725 278.275C513.725 265.936 498.35 255.933 479.384 255.933C460.418 255.933 445.043 265.936 445.043 278.275C445.043 290.614 460.418 300.617 479.384 300.617Z" fill="#000411"/>
<path d="M455.629 293.929C455.629 293.929 460.507 307.02 455.629 309.726C450.751 312.431 441.056 317.398 448.312 321.238C455.568 325.078 481.958 331.623 490.629 328.458C499.299 325.292 509.36 326.204 506.933 319.659C504.507 313.113 485.409 314.502 485.104 282.028L455.629 293.929Z" fill="#C4C4C4"/>
<path opacity="0.1" d="M407.056 348.356C407.056 348.356 408.093 366.414 404.971 369.571C404.971 369.571 400.093 386.233 401.154 390.993C402.215 395.754 404.276 426.878 404.276 426.878C404.276 426.878 400.459 454.187 420.922 451.704C441.385 449.22 417.8 420.555 417.8 420.555L418.837 383.313C418.837 383.313 428.202 375.641 429.239 366.652C430.276 357.663 407.056 348.356 407.056 348.356Z" fill="black"/>
<path d="M406.715 348.356C406.715 348.356 407.752 366.414 404.63 369.571C404.63 369.571 399.752 386.233 400.813 390.993C401.874 395.754 403.935 426.878 403.935 426.878C403.935 426.878 400.118 454.187 420.581 451.704C441.044 449.22 417.459 420.555 417.459 420.555L418.496 383.313C418.496 383.313 427.862 375.641 428.898 366.652C429.935 357.663 406.715 348.356 406.715 348.356Z" fill="#C4C4C4"/>
<path opacity="0.1" d="M537.496 350.387L534.715 379.505C534.715 379.505 532.983 420.357 525.349 430.734C525.349 430.734 527.435 459.4 506.959 458.717C486.484 458.035 510.423 427.346 510.423 427.346C510.423 427.346 521.398 395.484 515.74 385.352L510.423 350.387H537.496Z" fill="black"/>
<path d="M537.848 350.387L535.068 379.505C535.068 379.505 533.336 420.357 525.702 430.734C525.702 430.734 527.787 459.4 507.312 458.717C486.836 458.035 510.775 427.346 510.775 427.346C510.775 427.346 521.751 395.484 516.092 385.352L510.775 350.387H537.848Z" fill="#C4C4C4"/>
<path opacity="0.1" d="M471.24 322.182C471.24 322.182 487.813 327.141 496.849 312.36L530.532 323.078C532.609 324.356 534.264 325.896 535.396 327.604C536.528 329.312 537.114 331.152 537.117 333.012L544.434 358.289C544.434 358.289 519.8 352.87 512.179 367.77L514.252 381.996L514.325 382.139C515.924 385.648 515.539 389.414 513.24 392.754C513.043 393.051 512.942 393.371 512.942 393.695C512.942 394.018 513.043 394.338 513.24 394.635C514.971 397.34 512.898 402.981 503.484 403.664C494.069 404.346 483.715 403.664 476.423 405.02C469.13 406.377 447.289 402.315 439.996 405.02C432.704 407.726 417.448 402.989 417.448 402.989L421.606 391.477C421.606 391.477 418.826 385.836 422.302 383.805C425.777 381.774 423.692 364.168 420.57 359.21C420.57 359.21 408.082 351.537 400.802 352.862L411.204 323.745C411.204 323.745 418.838 314.042 433.753 314.264C448.667 314.486 455.606 310.202 455.606 310.202C455.606 310.202 446.948 320.603 471.24 322.182Z" fill="black"/>
<path opacity="0.1" d="M472.971 321.698C477.459 322.491 489.581 323.364 496.861 311.487L530.532 322.182C532.608 323.46 534.264 325 535.396 326.707C536.528 328.415 537.114 330.255 537.117 332.115L544.434 357.393C544.434 357.393 519.8 351.974 512.178 366.874L514.263 381.091L515.629 383.916C516.234 385.122 516.392 386.404 516.091 387.657C515.791 388.91 515.039 390.1 513.898 391.128C513.432 391.481 513.124 391.91 513.006 392.368C512.888 392.827 512.964 393.298 513.227 393.73C514.959 396.436 512.885 402.077 503.471 402.759C494.056 403.441 483.703 402.759 476.41 404.116C469.118 405.473 447.276 401.41 439.984 404.116C432.691 406.821 417.435 402.085 417.435 402.085L421.594 390.573C421.594 390.573 418.813 384.932 422.289 382.9C425.764 380.869 423.679 363.264 420.557 358.305C420.557 358.305 408.069 350.633 400.789 351.958L411.191 322.84C411.191 322.84 418.825 313.137 433.74 313.359C448.654 313.581 455.593 309.297 455.593 309.297C455.593 309.297 447.484 319.008 468.91 321.071C470.282 321.226 471.638 321.436 472.971 321.698V321.698Z" fill="black"/>
<path d="M472.971 322.11C477.459 322.904 489.581 323.776 496.861 311.899L530.532 322.634C532.608 323.912 534.264 325.452 535.396 327.16C536.528 328.867 537.114 330.707 537.117 332.567L544.434 357.845C544.434 357.845 519.8 352.426 512.178 367.326L514.263 381.544L514.337 381.686C515.936 385.196 515.551 388.962 513.251 392.302C513.055 392.599 512.954 392.919 512.954 393.242C512.954 393.566 513.055 393.885 513.251 394.182C514.983 396.888 512.91 402.529 503.495 403.211C494.081 403.894 483.727 403.211 476.435 404.568C469.142 405.925 447.301 401.863 440.008 404.568C432.716 407.273 417.46 402.537 417.46 402.537L421.618 391.025C421.618 391.025 418.838 385.384 422.313 383.353C425.789 381.322 423.703 363.716 420.582 358.757C420.582 358.757 408.094 351.085 400.813 352.41L411.216 323.292C411.216 323.292 418.85 313.589 433.764 313.811C448.679 314.034 455.63 309.797 455.63 309.797C455.63 309.797 447.52 319.508 468.947 321.571C470.304 321.698 471.647 321.878 472.971 322.11V322.11Z" fill="#444444"/>
<path opacity="0.1" d="M485.799 283.139L456.312 295.103C457.042 297.159 457.612 299.238 458.019 301.331C461.391 302.214 464.993 302.667 468.628 302.664C475.945 302.664 482.665 299.983 487.714 297.023C486.41 292.444 485.769 287.796 485.799 283.139Z" fill="black"/>
<path d="M467.947 301.53C483.66 301.53 496.398 293.243 496.398 283.02C496.398 272.797 483.66 264.51 467.947 264.51C452.234 264.51 439.496 272.797 439.496 283.02C439.496 293.243 452.234 301.53 467.947 301.53Z" fill="#C4C4C4"/>
<path d="M509.911 268.802C516.807 268.802 522.398 265.165 522.398 260.678C522.398 256.191 516.807 252.553 509.911 252.553C503.014 252.553 497.423 256.191 497.423 260.678C497.423 265.165 503.014 268.802 509.911 268.802Z" fill="#000411"/>
<path d="M512.337 269.254C509.176 269.253 506.133 268.472 503.822 267.069C501.512 265.666 500.105 263.745 499.886 261.693C499.886 261.884 499.886 262.066 499.886 262.257C499.886 264.411 501.201 266.478 503.543 268.001C505.885 269.525 509.061 270.381 512.373 270.381C515.685 270.381 518.862 269.525 521.204 268.001C523.545 266.478 524.861 264.411 524.861 262.257C524.861 262.066 524.861 261.876 524.861 261.693C524.641 263.753 523.224 265.681 520.898 267.085C518.571 268.49 515.51 269.265 512.337 269.254V269.254Z" fill="#000411"/>
<path d="M505.2 277.323C502.091 276.951 499.315 275.825 497.432 274.173C495.549 272.52 494.699 270.465 495.054 268.421C494.981 268.604 494.92 268.786 494.859 268.969C494.543 270.023 494.551 271.108 494.883 272.16C495.216 273.212 495.865 274.211 496.795 275.098C497.724 275.986 498.915 276.745 500.298 277.332C501.681 277.918 503.23 278.32 504.853 278.515C506.477 278.709 508.144 278.693 509.757 278.465C511.371 278.238 512.899 277.805 514.254 277.191C515.609 276.577 516.763 275.794 517.649 274.888C518.536 273.982 519.138 272.971 519.42 271.912C519.42 271.722 519.517 271.539 519.542 271.357C518.754 273.347 516.837 275.069 514.176 276.176C511.515 277.283 508.308 277.693 505.2 277.323V277.323Z" fill="#000411"/>
<path d="M495.493 296.738C492.384 296.365 489.608 295.239 487.725 293.587C485.842 291.935 484.992 289.88 485.347 287.836C485.274 288.018 485.213 288.201 485.152 288.383C484.836 289.437 484.844 290.522 485.176 291.574C485.509 292.626 486.158 293.625 487.088 294.513C488.017 295.401 489.208 296.16 490.591 296.746C491.974 297.332 493.523 297.735 495.146 297.929C496.77 298.124 498.437 298.107 500.05 297.88C501.664 297.653 503.192 297.219 504.547 296.605C505.902 295.991 507.056 295.209 507.942 294.303C508.829 293.396 509.431 292.385 509.713 291.327C509.713 291.136 509.81 290.954 509.835 290.771C509.047 292.761 507.13 294.484 504.469 295.591C501.808 296.698 498.601 297.108 495.493 296.738Z" fill="#000411"/>
<path d="M512.337 264.97C509.182 264.969 506.144 264.192 503.834 262.794C501.524 261.395 500.114 259.48 499.886 257.433C499.886 257.623 499.886 257.806 499.886 257.996C499.886 260.151 501.201 262.217 503.543 263.741C505.885 265.264 509.061 266.12 512.373 266.12C515.685 266.12 518.862 265.264 521.204 263.741C523.545 262.217 524.861 260.151 524.861 257.996C524.861 257.806 524.861 257.615 524.861 257.433C524.632 259.488 523.211 261.41 520.886 262.81C518.56 264.209 515.505 264.981 512.337 264.97V264.97Z" fill="#000411"/>
<path d="M494.91 260.606C494.945 258.549 496.178 256.578 498.359 255.089C500.541 253.6 503.51 252.705 506.666 252.585H505.8C504.16 252.574 502.533 252.772 501.011 253.17C499.489 253.568 498.103 254.157 496.931 254.903C495.759 255.649 494.824 256.538 494.18 257.52C493.537 258.501 493.196 259.555 493.178 260.622C493.161 261.689 493.466 262.748 494.078 263.738C494.689 264.728 495.594 265.63 496.741 266.393C497.888 267.155 499.255 267.763 500.763 268.182C502.272 268.601 503.892 268.822 505.532 268.834H506.398C503.235 268.669 500.287 267.726 498.153 266.198C496.019 264.67 494.86 262.671 494.91 260.606V260.606Z" fill="#000411"/>
<path opacity="0.1" d="M507.481 337.185C509.92 341.699 507.481 349.372 507.481 349.372C507.481 349.372 505.75 359.979 508.518 361.788" fill="black"/>
<path opacity="0.1" d="M423.215 339.668C425.654 344.183 423.215 351.855 423.215 351.855C423.215 351.855 421.483 362.463 424.251 364.272" fill="black"/>
<path opacity="0.1" d="M422.494 383.226C422.494 383.226 424.933 384.13 430.823 383.226C436.714 382.321 439.848 383.004 440.884 383.226" fill="black"/>
<path opacity="0.1" d="M426.651 367.207C426.651 367.207 442.615 367.881 455.444 364.271C455.444 364.271 490.809 369.913 500.882 365.858" fill="black"/>
<path d="M416.07 464.469H407.753C404.015 464.469 400.984 466.439 400.984 468.869C400.984 471.299 404.015 473.268 407.753 473.268H416.07C419.808 473.268 422.838 471.299 422.838 468.869C422.838 466.439 419.808 464.469 416.07 464.469Z" fill="#C4C4C4"/>
<path d="M400.984 466.731C400.984 466.731 412.167 466.39 412.679 466.39C413.192 466.39 422.85 467.405 422.85 467.405H419.289L400.984 466.731Z" fill="#F0E4E4"/>
<path d="M479.738 430.171C479.738 430.171 490.921 429.949 491.433 429.949C491.945 429.949 501.604 430.623 501.604 430.623H498.043L479.738 430.171Z" fill="#F0E4E4"/>
<path d="M479.738 431.75C479.738 431.75 490.921 431.528 491.433 431.528C491.945 431.528 501.604 432.202 501.604 432.202H498.043L479.738 431.75Z" fill="#F0E4E4"/>
<path d="M479.738 433.329C479.738 433.329 490.921 433.107 491.433 433.107C491.945 433.107 501.604 433.781 501.604 433.781H498.043L479.738 433.329Z" fill="#F0E4E4"/>
<path d="M479.738 434.908C479.738 434.908 490.921 434.685 491.433 434.685C491.945 434.685 501.604 435.36 501.604 435.36H498.043L479.738 434.908Z" fill="#F0E4E4"/>
<path d="M400.984 472.975C400.984 472.975 412.167 472.713 412.679 472.713C413.192 472.713 422.85 473.506 422.85 473.506H419.289L400.984 472.975Z" fill="#F0E4E4"/>
<path d="M400.984 472.189C400.984 472.189 412.167 471.927 412.679 471.927C413.192 471.927 422.85 472.721 422.85 472.721H419.289L400.984 472.189Z" fill="#F0E4E4"/>
<path d="M400.984 471.396C400.984 471.396 412.167 471.134 412.679 471.134C413.192 471.134 422.85 471.927 422.85 471.927H419.289L400.984 471.396Z" fill="#F0E4E4"/>
<path d="M400.984 470.602C400.984 470.602 412.167 470.341 412.679 470.341C413.192 470.341 422.85 471.134 422.85 471.134H419.289L400.984 470.602Z" fill="#F0E4E4"/>
<path d="M400.984 465.715C400.984 465.715 412.167 465.374 412.679 465.374C413.192 465.374 422.85 466.39 422.85 466.39H419.289L400.984 465.715Z" fill="#F0E4E4"/>
<path d="M400.984 464.358C400.984 464.358 412.167 464.017 412.679 464.017C413.192 464.017 422.85 465.033 422.85 465.033H419.289L400.984 464.358Z" fill="#F0E4E4"/>
<path opacity="0.1" d="M472.813 271.174C470.496 277.656 474.118 284.813 476.788 291.581C479.459 298.348 480.922 306.306 475.252 311.225C476.808 311.474 478.434 311.474 479.991 311.226C481.548 310.977 482.989 310.487 484.191 309.797C486.688 308.368 488.853 306.711 490.618 304.878C492.474 303.373 493.798 301.62 494.495 299.745C495.264 296.952 493.691 293.969 492.471 291.128C490.527 286.107 489.125 281.004 488.276 275.855C487.642 272.682 488.117 263.693 482.861 262.844C478.093 262.074 473.752 268.54 472.813 271.174Z" fill="black"/>
<path d="M473.509 270.92C471.192 277.403 474.814 284.559 477.485 291.327C480.155 298.094 481.619 306.052 475.948 310.971C477.496 311.216 479.112 311.215 480.66 310.968C482.207 310.72 483.64 310.234 484.838 309.551C487.336 308.122 489.5 306.465 491.265 304.632C493.122 303.127 494.446 301.374 495.143 299.499C495.911 296.706 494.338 293.723 493.119 290.882C491.174 285.861 489.773 280.758 488.924 275.609C488.289 272.436 488.765 263.447 483.509 262.598C478.753 261.852 474.436 268.294 473.509 270.92Z" fill="#000411"/>
<path opacity="0.1" d="M461.253 275.8C463.618 277.442 464.167 279.894 466.216 281.711C469.301 284.464 475.07 285.217 480.301 285.36C481.721 285.308 483.136 285.505 484.399 285.932C486.606 286.876 486.667 288.954 488.143 290.375C490.655 292.802 496.764 292.477 499.959 290.414C503.155 288.351 504.094 285.249 504.484 282.337C504.915 279.091 504.862 275.826 504.325 272.587C503.716 268.921 502.252 265.026 497.972 262.606C494.874 260.86 490.74 260.146 486.765 259.488C481.118 258.551 475.143 257.607 469.545 258.694C466.753 259.307 464.108 260.175 461.692 261.273C458.253 262.696 454.866 264.169 451.533 265.692C447.777 267.406 440.814 270.801 447.619 272.642C452.119 273.832 457.631 273.301 461.253 275.8Z" fill="black"/>
<path d="M461.946 275.578C464.312 277.22 464.861 279.672 466.909 281.488C469.995 284.242 475.763 284.995 480.995 285.138C482.414 285.086 483.83 285.283 485.092 285.709C487.299 286.654 487.36 288.732 488.836 290.152C491.348 292.58 497.458 292.255 500.653 290.192C503.848 288.129 504.787 285.027 505.177 282.115C505.609 278.869 505.555 275.604 505.019 272.364C504.409 268.699 502.945 264.803 498.665 262.384C495.568 260.638 491.433 259.924 487.458 259.265C481.812 258.329 475.836 257.385 470.239 258.472C467.446 259.085 464.801 259.953 462.385 261.051C458.946 262.473 455.56 263.947 452.227 265.47C448.47 267.184 441.507 270.579 448.312 272.42C452.812 273.61 458.324 273.055 461.946 275.578Z" fill="#000411"/>
<path d="M480.458 430.171C480.458 430.171 491.641 429.949 492.153 429.949C492.665 429.949 502.324 430.623 502.324 430.623H498.763L480.458 430.171Z" fill="#F0E4E4"/>
<path d="M480.458 431.75C480.458 431.75 491.641 431.528 492.153 431.528C492.665 431.528 502.324 432.202 502.324 432.202H498.763L480.458 431.75Z" fill="#F0E4E4"/>
<path d="M480.458 433.329C480.458 433.329 491.641 433.107 492.153 433.107C492.665 433.107 502.324 433.781 502.324 433.781H498.763L480.458 433.329Z" fill="#F0E4E4"/>
<path d="M480.458 434.908C480.458 434.908 491.641 434.685 492.153 434.685C492.665 434.685 502.324 435.36 502.324 435.36H498.763L480.458 434.908Z" fill="#F0E4E4"/>
<path d="M475.421 521.856C475.421 521.856 486.604 521.634 487.116 521.634C487.628 521.634 497.286 522.308 497.286 522.308H493.726L475.421 521.856Z" fill="#F0E4E4"/>
<path d="M475.421 523.435C475.421 523.435 486.604 523.213 487.116 523.213C487.628 523.213 497.286 523.887 497.286 523.887H493.726L475.421 523.435Z" fill="#F0E4E4"/>
<path d="M475.421 525.014C475.421 525.014 486.604 524.791 487.116 524.791C487.628 524.791 497.286 525.466 497.286 525.466H493.726L475.421 525.014Z" fill="#F0E4E4"/>
<path d="M475.421 526.592C475.421 526.592 486.604 526.37 487.116 526.37C487.628 526.37 497.286 527.045 497.286 527.045H493.726L475.421 526.592Z" fill="#F0E4E4"/>
<path d="M707.932 491.548H688.481V440.326H694.932V435.566H622.103V440.326H629.311V491.548H609.116C595.14 491.548 583.799 498.689 583.799 507.416V585.835C583.842 589.068 585.402 592.215 588.27 594.855C591.138 597.496 595.178 599.503 599.847 600.608C599.777 600.924 599.74 601.242 599.738 601.56C599.87 603.446 601.107 605.227 603.195 606.538C605.282 607.849 608.062 608.59 610.963 608.61C613.865 608.629 616.667 607.925 618.796 606.642C620.924 605.359 622.217 603.595 622.408 601.711H696.2C696.555 603.553 697.962 605.24 700.141 606.438C702.319 607.635 705.111 608.257 707.96 608.178C710.81 608.099 713.511 607.326 715.525 606.012C717.539 604.697 718.72 602.939 718.834 601.084C718.831 600.784 718.799 600.485 718.736 600.188C723.018 598.954 726.663 596.945 729.236 594.4C731.809 591.855 733.202 588.881 733.248 585.835V507.416C733.236 498.625 721.907 491.548 707.932 491.548ZM635.408 440.326H682.444V491.548H635.408V440.326Z" fill="url(#paint1_linear)"/>
<path d="M636.285 440.311H630.456V499.117H636.285V440.311Z" fill="#333333"/>
<path d="M687.31 440.311H681.48V499.117H687.31V440.311Z" fill="#333333"/>
<path d="M693.516 437.462H623.529V442.207H693.516V437.462Z" fill="#333333"/>
<path d="M686.322 493.278H630.712C606.412 493.278 586.713 506.094 586.713 521.903V574.506C586.713 590.315 606.412 603.131 630.712 603.131H686.322C710.622 603.131 730.321 590.315 730.321 574.506V521.903C730.321 506.094 710.622 493.278 686.322 493.278Z" fill="#0068B3"/>
<path d="M612.92 610.074C618.941 610.074 623.822 606.898 623.822 602.981C623.822 599.063 618.941 595.888 612.92 595.888C606.899 595.888 602.018 599.063 602.018 602.981C602.018 606.898 606.899 610.074 612.92 610.074Z" fill="#333333"/>
<path d="M612.92 605.932C615.426 605.932 617.457 604.611 617.457 602.981C617.457 601.351 615.426 600.029 612.92 600.029C610.415 600.029 608.384 601.351 608.384 602.981C608.384 604.611 610.415 605.932 612.92 605.932Z" fill="#F0E4E4"/>
<path d="M705.577 609.606C711.598 609.606 716.479 606.43 716.479 602.513C716.479 598.595 711.598 595.42 705.577 595.42C699.556 595.42 694.675 598.595 694.675 602.513C694.675 606.43 699.556 609.606 705.577 609.606Z" fill="#333333"/>
<path d="M705.577 605.464C708.082 605.464 710.113 604.143 710.113 602.513C710.113 600.883 708.082 599.561 705.577 599.561C703.071 599.561 701.04 600.883 701.04 602.513C701.04 604.143 703.071 605.464 705.577 605.464Z" fill="#F0E4E4"/>
<path opacity="0.1" d="M704.029 493.428H613.018C606.07 493.423 599.403 495.212 594.481 498.403C598.367 496.993 602.74 496.25 607.189 496.245H698.2C705.176 496.245 711.867 498.048 716.8 501.257C721.733 504.467 724.504 508.82 724.504 513.358V588.985C724.508 591.242 723.824 593.477 722.49 595.561C721.157 597.645 719.201 599.536 716.736 601.124C720.856 599.646 724.292 597.476 726.683 594.839C729.075 592.203 730.336 589.198 730.334 586.137V510.526C730.327 505.99 727.553 501.641 722.62 498.435C717.688 495.229 711.001 493.428 704.029 493.428V493.428Z" fill="black"/>
<path opacity="0.1" d="M658.164 564.088C671.85 564.088 682.944 556.87 682.944 547.967C682.944 539.063 671.85 531.845 658.164 531.845C644.478 531.845 633.384 539.063 633.384 547.967C633.384 556.87 644.478 564.088 658.164 564.088Z" fill="black"/>
<path d="M167.243 593.452H124.743C124.743 593.452 111.463 291.065 167.243 197.753H177.865C177.865 197.753 140.682 539.882 167.243 593.452Z" fill="#0068B3"/>
<path d="M138.023 182.203C138.023 182.203 103.499 244.405 119.425 272.055C119.425 272.055 143.328 215.034 171.218 206.394C199.107 197.753 228.327 272.055 228.327 272.055C228.327 272.055 244.265 225.403 215.046 187.384C215.046 187.384 273.472 208.115 302.692 247.864C302.692 247.864 308.009 221.944 238.948 168.382C238.948 168.382 300.033 178.752 339.874 202.942C339.874 202.942 353.154 183.901 270.814 152.831C270.814 152.831 281.436 130.37 345.203 140.732C345.203 140.732 345.203 111.376 244.278 116.541C244.278 116.541 244.278 97.4999 310.679 100.991C310.679 100.991 310.679 76.8001 233.656 85.4402C233.656 85.4402 249.595 69.8897 260.217 66.3987C260.217 66.3987 238.973 64.6691 223.034 73.3092C223.034 73.3092 225.692 42.2081 185.851 30.1088L180.534 73.3647C180.534 73.3647 135.889 39.1376 146.011 45.7149C148.669 47.4445 156.632 68.1759 153.974 78.5456C153.974 78.5456 108.852 54.355 53.0482 80.2752C53.0482 80.2752 122.108 83.7344 132.73 99.3167C132.73 99.3167 74.304 92.4062 61.0237 97.5871C61.0237 97.5871 106.145 107.957 103.523 114.867C103.523 114.867 23.8412 114.867 13.2803 133.909C13.2803 133.909 95.6208 140.819 100.926 146.008C100.926 146.008 5.31701 190.938 0 203.029C0 203.029 98.2671 165.018 114.206 165.018C130.145 165.018 42.4995 220.31 47.8043 234.139C47.719 234.043 119.425 178.752 138.023 182.203Z" fill="#0068B3"/>
<g opacity="0.5">
<path opacity="0.5" d="M591.152 522.697H622.969C622.969 522.697 632.969 296.309 591.152 226.403H583.201C583.201 226.403 611.018 482.591 591.152 522.697Z" fill="#0068B3"/>
<path opacity="0.5" d="M613.031 214.764C613.031 214.764 638.884 261.344 626.957 282.044C626.957 282.044 609.055 239.343 588.177 232.853C567.3 226.363 545.422 282.044 545.422 282.044C545.422 282.044 533.495 247.134 555.361 218.644C555.361 218.644 511.605 234.17 489.727 263.931C489.727 263.931 485.752 244.524 537.458 204.426C537.458 204.426 491.715 212.185 461.85 230.307C461.85 230.307 451.911 216.073 513.556 192.787C513.556 192.787 505.605 175.967 457.874 183.726C457.874 183.726 457.874 161.733 533.483 165.613C533.483 165.613 533.483 151.379 483.764 153.966C483.764 153.966 483.764 135.853 541.434 142.319C541.434 142.319 529.507 130.672 521.544 128.085C521.544 128.085 537.398 126.792 549.385 133.258C549.385 133.258 547.397 109.972 577.226 100.911L581.202 133.258C581.202 133.258 614.628 107.632 607.055 112.559C605.067 113.852 599.104 129.379 601.092 137.154C601.092 137.154 634.896 119.041 676.701 138.447C676.701 138.447 624.994 141.034 617.043 152.681C617.043 152.681 660.799 147.508 670.701 151.387C670.701 151.387 636.896 159.147 638.884 164.328C638.884 164.328 698.542 164.328 706.505 178.561C706.505 178.561 644.86 183.734 640.872 187.622C640.872 187.622 712.469 221.262 716.481 230.322C716.481 230.322 642.896 201.855 630.97 201.855C619.043 201.855 684.628 243.255 680.689 253.609C680.652 253.577 626.958 212.209 613.031 214.764Z" fill="#0068B3"/>
</g>
<g opacity="0.3">
<path opacity="0.3" d="M761.686 406.591H743.064C743.064 406.591 737.247 274.158 761.674 233.29H766.332C766.332 233.29 750.04 383.131 761.686 406.591Z" fill="#0068B3"/>
<path opacity="0.3" d="M748.88 226.49C748.88 226.49 733.758 253.735 740.733 265.843C740.733 265.843 751.197 240.867 763.416 237.082C775.636 233.298 788.428 265.843 788.428 265.843C788.428 265.843 795.404 245.413 782.611 228.759C782.611 228.759 808.221 237.844 821.001 255.243C821.001 255.243 823.33 243.889 793.087 220.429C793.087 220.429 819.842 224.967 837.293 235.567C837.293 235.567 843.11 227.244 807.05 213.621C807.05 213.621 811.708 203.783 839.623 208.321C839.623 208.321 839.623 195.453 795.416 197.73C795.416 197.73 795.416 189.407 824.501 190.922C824.501 190.922 824.501 180.33 790.77 184.115C790.77 184.115 797.745 177.308 802.404 175.792C802.404 175.792 793.099 174.999 786.123 178.823C786.123 178.823 787.343 165.2 769.843 159.901L767.514 178.823C767.514 178.823 748.002 163.836 752.392 166.716C753.611 167.509 757.05 176.554 755.88 181.092C755.88 181.092 736.099 170.5 711.673 181.886C711.673 181.886 741.916 183.401 746.575 190.208C746.575 190.208 720.965 187.177 715.173 189.415C715.173 189.415 734.953 193.953 733.782 196.984C733.782 196.984 698.88 196.984 694.234 205.307C694.234 205.307 730.295 208.337 732.624 210.606C732.624 210.606 690.746 230.283 688.417 235.583C688.417 235.583 731.453 218.921 738.416 218.921C745.38 218.921 707.002 243.152 709.331 249.181C709.331 249.181 740.746 224.967 748.88 226.49Z" fill="#0068B3"/>
</g>
</g>
<defs>
<linearGradient id="paint0_linear" x1="446.228" y1="608.241" x2="446.228" y2="245.913" gradientUnits="userSpaceOnUse">
<stop stop-color="#808080" stop-opacity="0.25"/>
<stop offset="0.54" stop-color="#808080" stop-opacity="0.12"/>
<stop offset="1" stop-color="#808080" stop-opacity="0.1"/>
</linearGradient>
<linearGradient id="paint1_linear" x1="110721" y1="141243" x2="110721" y2="103487" gradientUnits="userSpaceOnUse">
<stop stop-color="#808080" stop-opacity="0.25"/>
<stop offset="0.54" stop-color="#808080" stop-opacity="0.12"/>
<stop offset="1" stop-color="#808080" stop-opacity="0.1"/>
</linearGradient>
</defs>
</svg>
