<svg width="1280" height="282" viewBox="0 0 1280 282" fill="none" xmlns="http://www.w3.org/2000/svg">
<path opacity="0.1" d="M0 119.416C0 119.416 143.439 -21.2154 222.5 2.7483C317.681 31.5979 281.947 76.7718 370.5 119.416C434.685 150.325 488.213 96.7166 556.5 119.416C682.891 161.43 771.087 295.969 854.706 231.221C902.258 194.401 928.136 187.883 999.389 242.362C1057.48 286.777 1280 283.964 1280 283.964H0V119.416Z" fill="#044389"/>
<g opacity="0.2">
<g clip-path="url(#clip0)">
<path d="M705.045 49.4178C704.495 49.6184 703.516 49.7618 702.379 49.863C699.287 50.1385 695.024 50.1076 695.024 50.1076C695.024 50.1076 673.187 51.1732 656.251 43.2179C656.251 43.2179 653.769 41.7707 655.872 40.0442C656.197 39.7867 656.545 39.5629 656.912 39.3756L656.938 39.3475C657.174 39.1067 657.432 38.8915 657.71 38.7045C658.524 38.1463 659.918 37.502 661.692 37.8918L705.417 47.1701C705.417 47.1701 707.089 48.6692 705.045 49.4178Z" fill="#044389"/>
<path d="M696.209 45.6591L704.811 39.1215L708.849 40.0257L705.417 47.17C705.417 47.17 696.392 46.8804 696.209 45.6591Z" fill="#044389"/>
<path d="M673.149 40.5369L690.825 35.8328L693.773 36.6042L685.885 40.2127L683.539 43.1715L673.149 40.5369Z" fill="#044389"/>
<path d="M702.38 49.8629C699.288 50.1385 695.024 50.1075 695.024 50.1075C695.024 50.1075 673.187 51.1732 656.251 43.2179C656.251 43.2179 653.769 41.7706 655.872 40.0442L655.882 40.078C655.882 40.078 659.602 42.8043 676.714 45.6497L702.38 49.8629Z" fill="#FFD416"/>
<path d="M699.472 49.5961L707.762 53.4631L709.771 53.3039L704.697 49.211C704.697 49.211 698.778 47.6357 699.472 49.5961Z" fill="#044389"/>
<path d="M658.829 40.575C658.445 40.5662 657.519 39.8368 656.941 39.3476C657.177 39.1068 657.436 38.8916 657.713 38.7046C658.178 39.0871 659.002 39.7089 659.438 39.7037C660.067 39.7014 659.408 40.5874 658.829 40.575Z" fill="#C4C4C4"/>
<path d="M696.723 61.6857L691.567 61.7665L676.331 50.6242L673.503 48.5553L672.129 47.5501C674.445 45.415 684.688 48.9062 684.688 48.9062C684.892 49.0885 684.972 49.381 684.984 49.701C685.006 50.3001 684.79 50.9936 684.705 51.2428C684.685 51.3039 684.672 51.3362 684.672 51.3362L696.723 61.6857Z" fill="#044389"/>
<path d="M679.324 55.5224L678.466 56.0968L678.941 55.0553C678.778 54.9169 678.583 54.836 678.386 54.8253L678.371 54.8247C678.309 54.8235 678.246 54.816 678.184 54.8023L677.894 54.9973L678.007 54.748C677.787 54.658 677.591 54.4984 677.448 54.2918L676.929 54.6422L677.228 53.9843C676.884 53.561 676.439 53.2921 675.967 53.2729C675.402 53.2499 674.922 53.5908 674.634 54.1414C674.548 54.3063 674.421 54.4391 674.265 54.5263C674.109 54.6135 673.929 54.652 673.745 54.6378L673.715 54.6366C673.09 54.6112 672.634 55.3512 672.695 56.2901C672.756 57.2289 673.311 58.0101 673.935 58.0355C674.072 58.0406 674.205 58.0096 674.322 57.9453C674.527 57.843 674.755 57.7925 674.991 57.7972C675.227 57.8019 675.465 57.8616 675.688 57.9723C675.876 58.0676 676.077 58.121 676.278 58.1292C676.478 58.1373 676.673 58.1 676.851 58.0196C677.059 57.9284 677.287 57.8885 677.522 57.9029C677.756 57.9172 677.99 57.9853 678.207 58.1027C678.332 58.1751 678.468 58.2161 678.604 58.2222C679.228 58.2476 679.684 57.5076 679.623 56.5687C679.605 56.2079 679.502 55.8481 679.324 55.5224Z" fill="#444444"/>
<path opacity="0.5" d="M677.797 57.9404C677.466 57.8608 677.132 57.8865 676.836 58.0141C676.659 58.0947 676.464 58.1321 676.263 58.124C676.063 58.1158 675.862 58.0623 675.674 57.9668C675.451 57.8558 675.213 57.7959 674.977 57.7912C674.741 57.7866 674.513 57.8372 674.308 57.9397C674.191 58.0039 674.058 58.0348 673.921 58.0299C673.366 58.0073 672.866 57.3875 672.719 56.5914C672.824 56.5093 672.911 56.4041 672.975 56.2816C673.263 55.7317 673.743 55.3908 674.309 55.4138C674.874 55.4368 675.395 55.811 675.756 56.383C675.864 56.5553 676.009 56.6995 676.176 56.8015C676.344 56.9035 676.528 56.9598 676.712 56.965L676.727 56.9656C677.168 56.9823 677.575 57.3778 677.797 57.9404Z" fill="#444444"/>
<path d="M704.619 55.7461L703.761 56.3205L704.236 55.279C704.073 55.1406 703.878 55.0597 703.681 55.049L703.667 55.0484C703.604 55.0472 703.542 55.0397 703.48 55.0259L703.189 55.221L703.303 54.9717C703.082 54.8817 702.887 54.7221 702.743 54.5154L702.224 54.8659L702.524 54.208C702.179 53.7847 701.735 53.5158 701.263 53.4966C700.698 53.4736 700.218 53.8145 699.929 54.3651C699.844 54.53 699.716 54.6628 699.56 54.75C699.404 54.8372 699.225 54.8757 699.04 54.8615L699.01 54.8603C698.386 54.8349 697.929 55.5749 697.99 56.5138C698.051 57.4526 698.607 58.2338 699.231 58.2591C699.368 58.2643 699.5 58.2333 699.617 58.169C699.822 58.0667 700.051 58.0162 700.287 58.0209C700.522 58.0256 700.76 58.0853 700.983 58.196C701.172 58.2913 701.373 58.3447 701.573 58.3529C701.774 58.361 701.969 58.3237 702.146 58.2433C702.354 58.1521 702.583 58.1122 702.817 58.1266C703.051 58.1409 703.285 58.209 703.503 58.3264C703.628 58.3988 703.764 58.4398 703.899 58.4459C704.524 58.4713 704.98 57.7313 704.919 56.7924C704.9 56.4315 704.797 56.0718 704.619 55.7461V55.7461Z" fill="#F2F2F2"/>
<path opacity="0.5" d="M703.092 58.1641C702.762 58.0845 702.427 58.1102 702.131 58.2378C701.954 58.3183 701.759 58.3558 701.559 58.3476C701.358 58.3395 701.157 58.2859 700.969 58.1905C700.746 58.0795 700.508 58.0196 700.272 58.0149C700.037 58.0102 699.808 58.0609 699.603 58.1634C699.486 58.2275 699.353 58.2585 699.216 58.2536C698.662 58.231 698.161 57.6112 698.014 56.8151C698.119 56.733 698.206 56.6278 698.27 56.5053C698.559 55.9554 699.039 55.6145 699.604 55.6375C700.169 55.6605 700.691 56.0347 701.051 56.6067C701.16 56.7795 701.305 56.924 701.473 57.026C701.641 57.128 701.826 57.1841 702.011 57.1888L702.025 57.1894C702.463 57.2059 702.87 57.6015 703.092 58.1641Z" fill="black"/>
<path d="M703.296 35.3802L702.438 35.9546L702.913 34.9131C702.75 34.7747 702.555 34.6938 702.358 34.6831L702.343 34.6825C702.281 34.6813 702.219 34.6738 702.156 34.66L701.866 34.8551L701.98 34.6058C701.759 34.5158 701.563 34.3562 701.42 34.1495L700.901 34.5L701.2 33.8421C700.856 33.4188 700.411 33.1499 699.94 33.1307C699.374 33.1077 698.894 33.4486 698.606 33.9992C698.52 34.1641 698.393 34.2969 698.237 34.3841C698.081 34.4713 697.901 34.5098 697.717 34.4956L697.687 34.4944C697.063 34.469 696.606 35.209 696.667 36.1478C696.728 37.0867 697.283 37.8678 697.908 37.8932C698.045 37.8983 698.177 37.8674 698.294 37.803C698.499 37.7008 698.728 37.6503 698.963 37.655C699.199 37.6597 699.437 37.7194 699.66 37.8301C699.848 37.9258 700.049 37.9798 700.25 37.9885C700.45 37.9972 700.645 37.9604 700.823 37.8805C701.031 37.7892 701.26 37.7494 701.494 37.7637C701.728 37.7781 701.962 37.8462 702.18 37.9636C702.305 38.036 702.441 38.077 702.576 38.0831C703.2 38.1085 703.657 37.3685 703.596 36.4296C703.577 36.0677 703.474 35.7068 703.296 35.3802V35.3802Z" fill="#F2F2F2"/>
<path opacity="0.5" d="M701.769 37.7982C701.439 37.7186 701.104 37.7443 700.808 37.8719C700.631 37.9525 700.436 37.9899 700.236 37.9818C700.035 37.9736 699.834 37.9201 699.646 37.8246C699.423 37.7136 699.185 37.6537 698.949 37.649C698.713 37.6444 698.485 37.695 698.28 37.7975C698.163 37.8617 698.03 37.8926 697.893 37.8877C697.339 37.8651 696.838 37.2453 696.691 36.4492C696.796 36.3671 696.883 36.2619 696.947 36.1394C697.236 35.5895 697.716 35.2486 698.281 35.2716C698.846 35.2946 699.367 35.6687 699.728 36.2408C699.836 36.4136 699.981 36.5581 700.15 36.6601C700.318 36.7621 700.503 36.8182 700.687 36.8229L700.702 36.8235C701.14 36.84 701.547 37.2356 701.769 37.7982Z" fill="#444444"/>
<path d="M666.083 31.6752L665.656 31.9618L665.893 31.4426C665.812 31.3732 665.714 31.3326 665.616 31.3273L665.609 31.327C665.578 31.3261 665.546 31.3223 665.515 31.3158L665.371 31.4127L665.427 31.2911C665.317 31.2463 665.22 31.1667 665.148 31.0637L664.889 31.2389L665.041 30.9113C664.962 30.8082 664.865 30.7228 664.756 30.6614C664.648 30.6 664.53 30.5641 664.412 30.5563C664.13 30.5448 663.891 30.7147 663.749 30.9894C663.707 31.0719 663.643 31.1383 663.565 31.1818C663.487 31.2253 663.397 31.2444 663.305 31.237L663.29 31.2364C662.978 31.2237 662.751 31.5935 662.781 32.0617C662.812 32.5298 663.088 32.9195 663.4 32.9321C663.468 32.9347 663.534 32.9193 663.593 32.8873C663.695 32.8362 663.809 32.8109 663.927 32.8132C664.044 32.8155 664.163 32.8454 664.274 32.9008C664.368 32.9479 664.468 32.9744 664.567 32.9784C664.667 32.9825 664.763 32.964 664.852 32.9243C664.955 32.8787 665.07 32.8588 665.186 32.866C665.303 32.8733 665.42 32.9074 665.529 32.9661C665.591 33.0019 665.658 33.0222 665.726 33.0255C666.037 33.0381 666.265 32.669 666.234 32.2009C666.225 32.0195 666.173 31.8387 666.083 31.6752Z" fill="#444444"/>
<path opacity="0.03" d="M665.322 32.8815C665.157 32.8414 664.99 32.8542 664.842 32.9183C664.754 32.9578 664.657 32.9762 664.558 32.9724C664.457 32.9683 664.356 32.9412 664.262 32.8929C664.151 32.8377 664.032 32.808 663.914 32.8058C663.797 32.8035 663.683 32.8289 663.58 32.88C663.522 32.912 663.456 32.9274 663.388 32.9248C663.111 32.9136 662.862 32.6043 662.788 32.2075C662.84 32.1662 662.884 32.1137 662.916 32.0529C663.06 31.7782 663.299 31.6084 663.579 31.6198C663.859 31.6311 664.121 31.8195 664.301 32.1037C664.356 32.1901 664.428 32.2622 664.512 32.3131C664.596 32.3639 664.689 32.3918 664.781 32.3938L664.789 32.3941C665.006 32.403 665.211 32.6008 665.322 32.8815Z" fill="black"/>
<path d="M707.896 63.6581L707.469 63.9447L707.706 63.4255C707.625 63.3561 707.527 63.3155 707.429 63.3102L707.422 63.3099C707.391 63.309 707.359 63.3052 707.328 63.2987L707.184 63.3956L707.24 63.2741C707.13 63.2292 707.033 63.1496 706.961 63.0466L706.702 63.2218L706.854 62.8942C706.775 62.7911 706.678 62.7057 706.569 62.6443C706.461 62.5829 706.343 62.547 706.225 62.5392C705.943 62.5277 705.704 62.6976 705.562 62.9723C705.519 63.0548 705.456 63.1212 705.378 63.1647C705.3 63.2082 705.21 63.2273 705.118 63.2199L705.103 63.2193C704.791 63.2067 704.564 63.5764 704.594 64.0446C704.625 64.5127 704.901 64.9024 705.213 64.915C705.281 64.9176 705.347 64.9022 705.406 64.8702C705.508 64.8191 705.622 64.7938 705.74 64.7961C705.857 64.7984 705.976 64.8283 706.087 64.8837C706.181 64.9308 706.281 64.9573 706.38 64.9613C706.48 64.9654 706.576 64.9469 706.665 64.9072C706.768 64.8616 706.883 64.8417 706.999 64.8489C707.116 64.8562 707.233 64.8903 707.342 64.949C707.404 64.9848 707.471 65.0052 707.539 65.0084C707.85 65.021 708.078 64.6519 708.047 64.1838C708.038 64.0024 707.986 63.8216 707.896 63.6581V63.6581Z" fill="#F2F2F2"/>
<path opacity="0.03" d="M707.135 64.8644C706.97 64.8243 706.803 64.8371 706.655 64.9013C706.567 64.9407 706.47 64.9592 706.371 64.9553C706.27 64.9512 706.169 64.9241 706.075 64.8758C705.964 64.8206 705.845 64.7909 705.727 64.7887C705.61 64.7864 705.496 64.8118 705.393 64.8629C705.335 64.8949 705.269 64.9103 705.201 64.9078C704.924 64.8965 704.675 64.5872 704.601 64.1904C704.653 64.1491 704.697 64.0967 704.729 64.0358C704.872 63.7611 705.112 63.5913 705.392 63.6027C705.672 63.6141 705.934 63.8024 706.114 64.0866C706.168 64.173 706.241 64.2451 706.325 64.296C706.409 64.3468 706.502 64.3747 706.594 64.3767L706.602 64.377C706.819 64.3859 707.024 64.5837 707.135 64.8644Z" fill="black"/>
<path d="M666.429 63.5816L666.001 63.8683L666.238 63.3491C666.157 63.2797 666.06 63.2391 665.961 63.2338L665.954 63.2335C665.923 63.2326 665.892 63.2288 665.861 63.2223L665.716 63.3192L665.773 63.1976C665.663 63.1528 665.565 63.0732 665.494 62.9702L665.235 63.1454L665.387 62.8178C665.308 62.7147 665.211 62.6293 665.102 62.5679C664.993 62.5065 664.876 62.4706 664.758 62.4628C664.476 62.4513 664.237 62.6212 664.095 62.8959C664.052 62.9784 663.989 63.0448 663.91 63.0883C663.832 63.1318 663.743 63.1509 663.65 63.1435L663.635 63.1429C663.324 63.1302 663.096 63.5 663.127 63.9681C663.157 64.4363 663.434 64.8259 663.745 64.8386C663.814 64.8411 663.88 64.8258 663.938 64.7938C664.041 64.7426 664.155 64.7173 664.272 64.7197C664.39 64.722 664.509 64.7519 664.62 64.8073C664.714 64.8544 664.813 64.8809 664.913 64.8849C665.012 64.889 665.109 64.8705 665.197 64.8308C665.301 64.7852 665.415 64.7653 665.532 64.7725C665.649 64.7797 665.766 64.8139 665.874 64.8725C665.936 64.9084 666.004 64.9287 666.072 64.932C666.383 64.9446 666.611 64.5755 666.58 64.1074C666.571 63.926 666.519 63.7452 666.429 63.5816V63.5816Z" fill="#F2F2F2"/>
<path opacity="0.03" d="M665.667 64.788C665.502 64.7479 665.335 64.7607 665.187 64.8248C665.099 64.8643 665.002 64.8827 664.903 64.8789C664.802 64.8748 664.702 64.8477 664.607 64.7994C664.496 64.7442 664.377 64.7145 664.259 64.7122C664.142 64.71 664.028 64.7354 663.925 64.7865C663.867 64.8185 663.801 64.8339 663.733 64.8313C663.457 64.8201 663.207 64.5108 663.133 64.114C663.185 64.0727 663.229 64.0202 663.261 63.9594C663.405 63.6847 663.644 63.5149 663.924 63.5262C664.204 63.5376 664.466 63.726 664.647 64.0102C664.701 64.0965 664.773 64.1687 664.857 64.2196C664.941 64.2704 665.034 64.2983 665.126 64.3003L665.134 64.3006C665.351 64.3095 665.556 64.5073 665.667 64.788Z" fill="black"/>
<path d="M684.613 26.1363L683.755 26.7108L684.23 25.6693C684.067 25.5309 683.872 25.4499 683.675 25.4393L683.66 25.4387C683.598 25.4374 683.535 25.4299 683.473 25.4162L683.183 25.6112L683.296 25.3619C683.076 25.272 682.88 25.1123 682.737 24.9057L682.218 25.2562L682.517 24.5983C682.173 24.1749 681.728 23.906 681.256 23.8869C680.691 23.8639 680.211 24.2048 679.923 24.7553C679.837 24.9202 679.71 25.0531 679.554 25.1403C679.398 25.2274 679.218 25.2659 679.034 25.2517L679.004 25.2505C678.379 25.2251 677.923 25.9652 677.984 26.904C678.045 27.8428 678.6 28.624 679.224 28.6494C679.362 28.6545 679.494 28.6235 679.611 28.5592C679.816 28.457 680.044 28.4065 680.28 28.4111C680.516 28.4158 680.754 28.4756 680.977 28.5863C681.165 28.682 681.366 28.736 681.567 28.7447C681.767 28.7533 681.962 28.7165 682.14 28.6367C682.348 28.5454 682.577 28.5056 682.811 28.5199C683.045 28.5342 683.279 28.6024 683.497 28.7197C683.621 28.7922 683.757 28.8332 683.893 28.8393C684.517 28.8647 684.974 28.1246 684.913 27.1858C684.894 26.8239 684.791 26.463 684.613 26.1363V26.1363Z" fill="#F2F2F2"/>
<path opacity="0.5" d="M683.086 28.5544C682.755 28.4748 682.421 28.5004 682.125 28.628C681.948 28.7086 681.753 28.7461 681.552 28.7379C681.352 28.7298 681.151 28.6762 680.963 28.5808C680.74 28.4698 680.502 28.4099 680.266 28.4052C680.03 28.4005 679.802 28.4512 679.597 28.5537C679.48 28.6178 679.347 28.6488 679.21 28.6439C678.655 28.6213 678.155 28.0015 678.008 27.2053C678.113 27.1232 678.2 27.018 678.264 26.8956C678.552 26.3456 679.032 26.0047 679.598 26.0277C680.163 26.0507 680.684 26.4249 681.045 26.9969C681.153 27.1698 681.298 27.3142 681.466 27.4163C681.635 27.5183 681.82 27.5744 682.004 27.579L682.019 27.5796C682.457 27.5962 682.864 27.9918 683.086 28.5544Z" fill="#444444"/>
<path d="M715.907 38.0363L715.479 38.323L715.716 37.8037C715.635 37.7343 715.537 37.6937 715.439 37.6884L715.432 37.6882C715.401 37.6872 715.37 37.6835 715.338 37.6769L715.194 37.7738L715.251 37.6523C715.141 37.6075 715.043 37.5279 714.971 37.4248L714.713 37.6001L714.864 37.2725C714.786 37.1693 714.688 37.084 714.58 37.0226C714.471 36.9611 714.353 36.9252 714.235 36.9174C713.954 36.906 713.714 37.0758 713.572 37.3506C713.53 37.4331 713.466 37.4994 713.388 37.5429C713.31 37.5865 713.22 37.6055 713.128 37.5982L713.113 37.5976C712.802 37.5849 712.574 37.9546 712.604 38.4228C712.635 38.891 712.912 39.2806 713.223 39.2933C713.291 39.2958 713.358 39.2804 713.416 39.2485C713.518 39.1973 713.632 39.172 713.75 39.1743C713.868 39.1767 713.986 39.2066 714.097 39.262C714.191 39.3091 714.291 39.3355 714.39 39.3396C714.49 39.3436 714.587 39.3252 714.675 39.2854C714.779 39.2398 714.893 39.22 715.01 39.2272C715.126 39.2344 715.243 39.2685 715.352 39.3272C715.414 39.363 715.482 39.3834 715.549 39.3866C715.86 39.3993 716.088 39.0302 716.058 38.562C716.048 38.3806 715.996 38.1998 715.907 38.0363V38.0363Z" fill="#F2F2F2"/>
<path opacity="0.03" d="M715.145 39.2427C714.98 39.2026 714.813 39.2154 714.665 39.2795C714.577 39.319 714.48 39.3375 714.381 39.3336C714.281 39.3291 714.181 39.302 714.087 39.2542C713.976 39.199 713.858 39.1693 713.74 39.1671C713.622 39.1649 713.508 39.1902 713.406 39.2413C713.348 39.2733 713.282 39.2887 713.214 39.2862C712.937 39.2749 712.687 38.9656 712.614 38.5688C712.666 38.5275 712.709 38.4751 712.742 38.4142C712.885 38.1395 713.125 37.9697 713.405 37.9811C713.685 37.9925 713.946 38.1808 714.127 38.465C714.181 38.5509 714.253 38.6228 714.337 38.6736C714.42 38.7244 714.512 38.7524 714.604 38.755L714.611 38.7553C714.829 38.7642 715.034 38.962 715.145 39.2427Z" fill="black"/>
</g>
</g>
<defs>
<clipPath id="clip0">
<rect width="62.4748" height="41.083" fill="white" transform="matrix(0.98255 0.0399607 0.0660635 1.01675 653.81 22.77)"/>
</clipPath>
</defs>
</svg>
